# xmcd
#
# Track frame offsets: 
#        150
#        12928
#        26456
#        42840
#        56096
#        69011
#        91274
#        104967
#        115790
#        128340
#        141561
#        148826
#        173657
#        202556
#        223031
#        233781
#        249686
#
# Disc length: 3508 seconds
#
# Revision: 0
# Processed by: cddbd v1.5.2PL0 Copyright (c) Steve Scherf et al.
# Submitted via: ExactAudioCopy v0.95a5
#
DISCID=eb0db211
DTITLE=古典殿堂绕梁集 - 古典小喇叭名曲
DYEAR=2002
DGENRE=Acid Jazz
TTITLE0=圣母颂-舒伯特
TTITLE1=悲怆奏鸣曲-贝多芬
TTITLE2=阿兰费滋之恋-罗德利果
TTITLE3=第40号交响曲-莫扎特
TTITLE4=小号即兴曲-克拉克
TTITLE5=饮酒歌-班纳德
TTITLE6=小夜曲-舒伯特
TTITLE7=哀叹小夜曲-托塞里
TTITLE8=采珠者-比才
TTITLE9=魔笛-莫扎特
TTITLE10=大黄蜂之行-林姆斯基高沙可夫
TTITLE11=G弦之歌-巴哈
TTITLE12=降E大调小喇叭协奏曲-海顿
TTITLE13=圣咏唤醒沉睡的声音-巴哈
TTITLE14=小喇叭协奏曲-托瑞利
TTITLE15=摇篮曲-柴可夫斯基
TTITLE16=阿尔夫拉绮想曲-泰雷嘉
EXTD=
EXTT0=
EXTT1=
EXTT2=
EXTT3=
EXTT4=
EXTT5=
EXTT6=
EXTT7=
EXTT8=
EXTT9=
EXTT10=
EXTT11=
EXTT12=
EXTT13=
EXTT14=
EXTT15=
EXTT16=
PLAYORDER=
